<?xml version="1.0" standalone="no"?>
<!DOCTYPE svg PUBLIC "-//W3C//DTD SVG 20010904//EN"
 "http://www.w3.org/TR/2001/REC-SVG-20010904/DTD/svg10.dtd">
<svg version="1.0" xmlns="http://www.w3.org/2000/svg"
 width="352.000000pt" height="210.000000pt" viewBox="0 0 352.000000 210.000000"
 preserveAspectRatio="xMidYMid meet">
<metadata>
Created by potrace 1.16, written by Peter Selinger 2001-2019
</metadata>
<g transform="translate(0.000000,210.000000) scale(0.100000,-0.100000)"
fill="#000000" stroke="none">
<path d="M1350 1050 l0 -1050 375 0 375 0 0 476 0 475 -22 -3 c-15 -2 -25 -13
-32 -35 -8 -31 -12 -33 -52 -33 -24 0 -44 2 -44 5 0 2 27 79 61 170 39 106 66
165 75 165 12 0 14 70 14 440 l0 440 -375 0 -375 0 0 -1050z m410 141 c0 -28
-2 -30 -47 -33 l-48 -3 -3 -137 -3 -138 -39 0 -39 0 -3 138 -3 137 -47 3 c-46
3 -48 5 -48 33 l0 29 140 0 140 0 0 -29z m110 -61 c0 -7 6 -7 19 0 40 21 56
13 55 -27 -1 -21 -7 -37 -13 -36 -5 2 -22 -2 -36 -7 -24 -9 -25 -13 -25 -95
l0 -85 -40 0 -40 0 0 130 0 130 40 0 c22 0 40 -5 40 -10z"/>
<path d="M0 1336 l0 -708 26 6 c21 6 25 4 20 -11 -19 -61 -38 -218 -43 -338
-5 -135 -4 -141 19 -175 27 -40 98 -80 144 -80 57 0 186 114 367 322 198 228
228 280 242 411 l8 69 -69 -8 c-81 -10 -119 -10 -156 -1 -99 25 -112 337 -16
388 12 6 64 12 115 12 51 0 93 4 93 7 0 18 -44 139 -60 165 -29 47 -78 88
-177 149 -77 47 -116 82 -235 208 -79 84 -173 184 -210 223 l-68 70 0 -709z"/>
<path d="M567 1169 c-52 -30 -67 -176 -28 -264 l21 -48 113 9 c229 18 246 13
422 -120 55 -42 106 -76 113 -76 37 0 -15 194 -79 289 -60 90 -186 169 -328
206 -67 17 -207 20 -234 4z"/>
</g>
</svg>
